<?xml version="1.0" standalone="no"?><!DOCTYPE svg PUBLIC "-//W3C//DTD SVG 1.1//EN" "http://www.w3.org/Graphics/SVG/1.1/DTD/svg11.dtd"><svg t="1759042091403" class="icon" viewBox="0 0 1024 1024" version="1.1" xmlns="http://www.w3.org/2000/svg" p-id="3220" xmlns:xlink="http://www.w3.org/1999/xlink" width="200" height="200"><path d="M763.684 1023.964h-72.19v-36.095h72.19z m-144.378 0h-72.189v-36.095h72.189z m-144.378 0H402.74v-36.095h72.19z m-144.378 0h-72.189v-36.095h72.19z" fill="#7355AA" opacity=".5" p-id="3221"></path><path d="M928.383 536.905a27.468 27.468 0 0 0-34.47-3.61 390.398 390.398 0 0 1-147.41 25.267 380.183 380.183 0 0 1-378.667-378.234 349.755 349.755 0 0 1 28.442-135.751A30.392 30.392 0 0 0 384.8 8.085a27.684 27.684 0 0 0-34.795-3.32 451.18 451.18 0 0 0-193.43 165.6 438.656 438.656 0 0 0-74.571 245.082 444.828 444.828 0 0 0 695.793 366.467 437.754 437.754 0 0 0 162.028-208.373 30.716 30.716 0 0 0-11.442-36.636z" fill="#7355AA" p-id="3222"></path><path d="M593.643 351.849H482.147l-13.572-29.922 85.364-97.78h-71.792v-36.095h111.496l13.571 29.922-85.363 97.78h71.792z m225.049-57.354H677.346l-13.752-29.742L779.6 128.568H677.346V92.474h141.346l13.752 29.742L716.436 258.4h102.256z" fill="#7355AA" opacity=".6" p-id="3223"></path></svg>